Coordinates
version=1
nRows=24
nColumns=24
inDegrees=yes

Units are S.I. units (second, meters, Newtons, ...)
If the header above contains a line with 'inDegrees', this indicates whether rotational values are in degrees (yes) or radians (no).

endheader
time	pelvis_tilt	pelvis_list	pelvis_rotation	pelvis_tx	pelvis_ty	pelvis_tz	hip_flexion_r	hip_adduction_r	hip_rotation_r	knee_angle_r	ankle_angle_r	subtalar_angle_r	mtp_angle_r	hip_flexion_l	hip_adduction_l	hip_rotation_l	knee_angle_l	ankle_angle_l	subtalar_angle_l	mtp_angle_l	lumbar_extension	lumbar_bending	lumbar_rotation
      6.13000000	     -2.83369306	    -30.31620532	    -97.40164609	     -0.25325708	      0.98593432	     -0.85713042	    -46.13593786	      1.08934364	     -3.93178875	      5.50261047	      7.92247648	      9.34613885	      0.00000000	     -7.00667679	     -4.94941864	    -18.88368599	    -16.71090958	      4.52800573	     -0.00769112	      0.00000000	    -50.12913001	     -1.07892310	     11.63226359
      6.14000000	     -3.20123812	    -30.37977210	    -97.44149152	     -0.25274186	      0.98300953	     -0.84198390	    -47.56697579	      1.31421019	     -3.89852713	      6.05819027	      8.09894447	      9.53433997	      0.00000000	     -7.93826863	     -4.65418856	    -19.31863815	    -11.64576268	      4.85167421	      1.84805570	      0.00000000	    -50.11372764	     -0.74593867	     11.75771379
      6.15000000	     -3.58405161	    -30.45270349	    -97.44410897	     -0.25211445	      0.97990985	     -0.82653926	    -48.97496003	      1.56967770	     -3.98619287	      6.50801874	      8.30314893	      9.88494114	      0.00000000	     -8.95674805	     -4.33835363	    -19.70136218	     -6.67825243	      4.99884868	      3.39091621	      0.00000000	    -50.07812975	     -0.37179735	     11.86061385
      6.16000000	     -4.02020018	    -30.50822125	    -97.50733090	     -0.25141999	      0.97675882	     -0.81105607	    -50.22958918	      1.81685676	     -4.09494659	      6.70440064	      8.56067182	     10.38352758	      0.00000000	     -9.98565044	     -4.04841629	    -20.08240264	     -1.97745476	      4.99196926	      4.53362613	      0.00000000	    -50.03771062	      0.02046534	     11.99431515
      6.17000000	     -4.59012133	    -30.58759703	    -97.78265786	     -0.25084697	      0.97375797	     -0.79580845	    -51.32923862	      2.01754129	     -4.07471371	      6.59863581	      8.86965754	     10.93083598	      0.00000000	    -11.03456186	     -3.86763733	    -20.41987721	      2.28448923	      4.82704646	      5.09797837	      0.00000000	    -50.07798431	      0.39220347	     12.29812371
      6.18000000	     -5.43085644	    -30.69169618	    -98.48452171	     -0.25064401	      0.97114284	     -0.78121976	    -52.16929609	      2.13368424	     -3.71001373	      6.03298571	      9.23807665	     11.45870222	      0.00000000	    -12.06336594	     -3.94445790	    -20.81089794	      5.88365722	      4.55634815	      5.06851718	      0.00000000	    -50.27730527	      0.71456124	     12.94761425
      6.19000000	     -6.65421925	    -30.82594758	    -99.78401344	     -0.25100815	      0.96912827	     -0.76762103	    -52.70694981	      2.13534811	     -2.82683009	      4.92730868	      9.66456861	     11.89495762	      0.00000000	    -13.04175633	     -4.39555340	    -21.40012484	      8.58008819	      4.24527854	      4.54000684	      0.00000000	    -50.71798278	      0.96343164	     14.07463616
      6.20000000	     -8.20738114	    -30.99648369	   -101.61471490	     -0.25191237	      0.96778838	     -0.75492448	    -52.98159652	      2.01839306	     -1.33848368	      3.29967755	     10.03955228	     12.01654775	      0.00000000	    -13.95322510	     -5.19366719	    -22.18371455	     10.19743452	      4.00749627	      3.70394670	      0.00000000	    -51.40379155	      1.09701172	     15.62587661
      6.21000000	     -7.13367426	    -31.05171511	   -100.16436330	     -0.24941133	      0.96485208	     -0.73622367	    -53.75564175	      1.77476489	     -2.98235885	      2.64437679	     10.31707508	     12.77832554	      0.00000000	    -14.05489493	     -4.02372687	    -20.68431707	     11.06434914	      4.07407376	      2.93008625	      0.00000000	    -50.80833970	      1.08348623	     14.22545057
      6.22000000	     -5.65524197	    -31.00206336	    -98.41651483	     -0.24670743	      0.96196786	     -0.71690238	    -54.33961045	      1.38230477	     -4.98099378	      1.79927861	     10.53977623	     13.67531772	      0.00000000	    -13.83231668	     -2.62632258	    -19.09671359	     10.90759770	      4.25440875	      2.53856124	      0.00000000	    -50.01297359	      0.83512323	     12.51915706
      6.23000000	     -6.11707819	    -31.16473973	    -99.42356476	     -0.24701858	      0.96111668	     -0.70238726	    -54.22029246	      0.71923785	     -4.33475461	     -0.36154412	     10.75816314	     13.95181139	      0.00000000	    -13.93705104	     -2.78080512	    -19.40011913	      9.65129041	      4.20401297	      2.33876985	      0.00000000	    -50.33132526	      0.43554298	     13.17006172
      6.24000000	     -6.16429361	    -31.31851683	   -100.05490449	     -0.24705001	      0.96028566	     -0.68692367	    -54.06752525	     -0.07213811	     -3.92285913	     -2.56718139	     10.74603404	     14.06816450	      0.00000000	    -13.91749709	     -2.64020907	    -19.41819549	      7.89870962	      3.94972195	      2.37403687	      0.00000000	    -50.47395612	     -0.13660257	     13.43831855
      6.25000000	     -5.90238994	    -31.50116621	   -100.36069542	     -0.24675614	      0.95948073	     -0.67061725	    -53.91947635	     -0.92931246	     -3.74813499	     -4.81881900	     10.46970374	     14.10708094	      0.00000000	    -13.87617882	     -2.26933265	    -19.17881831	      5.94516419	      3.36539651	      2.48312636	      0.00000000	    -50.50226347	     -0.79337393	     13.38802706
      6.26000000	     -5.52300050	    -31.55895743	   -100.48954253	     -0.24621662	      0.95868264	     -0.65380661	    -53.52399375	     -1.77487927	     -3.90244872	     -7.24615727	      9.91486174	     14.42132371	      0.00000000	    -13.71466321	     -1.84374472	    -18.83062341	      4.04048365	      2.17768524	      2.34328008	      0.00000000	    -50.33285060	     -1.42193751	     13.19374137
      6.27000000	     -5.01693261	    -31.73650473	   -100.56096537	     -0.24548505	      0.95815193	     -0.63657621	    -53.15453018	     -2.74756942	     -4.21175906	     -9.79261585	      8.97522700	     14.75544811	      0.00000000	    -13.81024305	     -1.24803109	    -18.62038164	      2.44171298	      0.44209864	      2.01482279	      0.00000000	    -50.21222204	     -2.13460282	     12.89223118
      6.28000000	     -4.48621146	    -31.96414433	   -100.67510020	     -0.24465617	      0.95797893	     -0.61928885	    -52.63416261	     -3.82576653	     -4.61852049	    -12.58702611	      7.61721478	     15.14787692	      0.00000000	    -14.09608609	     -0.59270177	    -18.68577992	      1.13083878	     -1.57777880	      1.62057521	      0.00000000	    -50.12764665	     -2.89028672	     12.60087919
      6.29000000	     -3.87438935	    -32.24287557	   -100.79062893	     -0.24365715	      0.95821430	     -0.60205834	    -51.91115941	     -5.06365103	     -5.24032411	    -15.68448832	      5.76181937	     15.68026444	      0.00000000	    -14.55091413	      0.17375963	    -18.68798593	      0.02890787	     -3.46946890	      0.92967250	      0.00000000	    -50.08402158	     -3.71145100	     12.23216823
      6.30000000	     -3.12995405	    -32.54581583	   -100.86549539	     -0.24241732	      0.95882675	     -0.58509207	    -50.91560668	     -6.49058733	     -6.00258316	    -19.11875254	      3.38872049	     16.18762019	      0.00000000	    -15.01147531	      1.08289422	    -18.44044180	     -1.14366954	     -4.79018418	     -0.09465435	      0.00000000	    -50.08113976	     -4.60939940	     11.78894166
      6.31000000	     -2.24334802	    -32.82472243	   -100.84162693	     -0.24089796	      0.95969597	     -0.56851890	    -49.59600380	     -8.06593884	     -6.82351531	    -22.87043801	      0.43048652	     16.44200173	      0.00000000	    -15.31533607	      2.11555123	    -17.85883551	     -2.59355091	     -5.32206835	     -1.32525925	      0.00000000	    -50.09197088	     -5.54864915	     11.22955961
      6.32000000	     -1.27131803	    -33.03232966	   -100.75167859	     -0.23915781	      0.96064188	     -0.55233339	    -47.92788490	     -9.73283311	     -7.52410167	    -26.88472577	     -3.08575601	     16.20608154	      0.00000000	    -15.40046232	      3.21462631	    -17.20366418	     -4.35399332	     -4.98156099	     -2.36161470	      0.00000000	    -50.07108263	     -6.48305194	     10.58387501
      6.33000000	     -0.31861895	    -33.20227796	   -100.59820416	     -0.23729096	      0.96162805	     -0.53652098	    -46.04903305	    -11.34368840	     -8.01593352	    -30.96576926	     -7.15150897	     15.31655181	      0.00000000	    -15.36859391	      4.26979990	    -16.69997050	     -6.30761522	     -4.06376282	     -2.99815469	      0.00000000	    -50.06391734	     -7.32053383	      9.89672428
      6.34000000	      0.49217549	    -33.33834234	   -100.43868483	     -0.23540459	      0.96263938	     -0.52101372	    -44.04127806	    -12.78183189	     -8.28788380	    -34.95871172	    -11.55399277	     13.74503127	      0.00000000	    -15.36101493	      5.16802972	    -16.52297729	     -8.22695200	     -2.75767646	     -3.12887934	      0.00000000	    -50.06777286	     -7.97777776	      9.22116333
      6.35000000	      1.05809014	    -33.44883302	   -100.37344217	     -0.23365509	      0.96376308	     -0.50577294	    -41.96772688	    -13.97041419	     -8.29594640	    -38.73032148	    -15.93604567	     11.55814522	      0.00000000	    -15.51252945	      5.82224606	    -16.83975261	     -9.90708697	     -1.23533405	     -2.59815151	      0.00000000	    -50.08135296	     -8.42591856	      8.63729166
      6.36000000	      1.36083444	    -33.65689409	   -100.39186902	     -0.23204847	      0.96519302	     -0.49068728	    -40.06723057	    -14.86783582	     -8.15803290	    -42.12705424	    -19.79354638	      8.80076515	      0.00000000	    -16.04977532	      6.25560298	    -17.46697161	    -11.18078035	      0.34994149	     -1.58938795	      0.00000000	    -50.21124099	     -8.65615308	      8.15069349
